<svg t="1671614343442" viewBox="0 0 1024 1024"  p-id="1785" width="128" height="128"><path d="M939.546343 697.291429c-39.005714-73.142857-58.514286-136.537143-58.514286-199.92v-9.76c0-156.034286-82.891429-297.451429-214.56-360.834286C656.734914 53.634286 593.340629 0 515.317771 0c-73.142857 0-141.405714 53.634286-156.034285 126.777143C232.506343 185.291429 144.723486 321.817143 144.723486 463.234286v39.005714c0 63.394286-19.497143 121.908571-58.514286 195.051429-19.508571 29.257143-24.377143 58.514286-19.508571 92.651428 9.748571 68.262857 73.142857 121.908571 146.285714 121.908572h117.028571C369.032057 980.114286 442.174914 1024 515.317771 1024c78.022857 0 146.285714-43.885714 180.422858-112.148571h117.028571c73.142857 0 136.537143-48.765714 146.285714-121.908572v-9.748571c0-24.388571 0-53.645714-19.508571-82.902857z m-76.285714 33.142857c-7.657143 57.474286-57.474286 95.782857-114.937143 95.782857h-91.954286c-26.822857 53.634286-80.457143 88.114286-141.714286 88.114286-57.462857 0-114.937143-34.48-145.588571-88.114286h-92c-57.474286 0-107.28-42.148571-114.937143-95.782857-3.828571-26.822857 0-49.805714 15.325714-72.788572 30.651429-57.474286 45.977143-103.44 45.977143-153.257143v-30.697142c0-111.108571 68.96-218.388571 168.582857-264.354286C403.500629 151.862857 457.146343 109.714286 514.6092 109.714286c61.302857 0 111.108571 42.148571 118.765714 99.611428C736.826343 259.131429 801.957771 370.285714 801.957771 492.845714v7.668572c0 49.805714 15.325714 99.611429 45.977143 157.085714 15.325714 22.982857 15.325714 45.977143 15.325715 65.142857z" p-id="1786"></path></svg>